{"title":"Pantera - The Great Southern Trendkill (1996)[Eac Flac][Rock Cit","uid":4712487,"size":405904498,"categoryP":"audio","categoryS":"flac","magnet":"?xt=urn:btih:fe511e6cbb63f717453ff7dbaa2b68a377ebadf3&amp;dn=Pantera+-+The+Great+Southern+Trendkill+%281996%29%5BEac+Flac%5D%5BRock+Cit&amp;tr=udp%3A%2F%2Ftracker.openbittorrent.com%3A80&amp;tr=udp%3A%2F%2Fopen.demonii.com%3A1337&amp;tr=udp%3A%2F%2Ftracker.coppersurfer.tk%3A6969&amp;tr=udp%3A%2F%2Fexodus.desync.com%3A6969","seeders":1,"leechers":0,"uploader":"Maste75","files":11,"time":1234053832,"description":"Open the .cue file with foobar 2000 (freeware - search it with google)\nhighlight all the tracks in foobar then right click on them and select &quot;convert&quot;\nThat's all.\n\n\n\n\n\nExact Audio Copy V0.99 prebeta 4 from 23. January 2008\n\nEAC extraction logfile from 8. February 2009, 10:10\n\nPantera / The Great Southern Trendkill\n\nUsed drive  : HL-DT-STDVDRAM GSA-H42L   Adapter: 1  ID: 0\n\nRead mode               : Secure\nUtilize accurate stream : Yes\nDefeat audio cache      : Yes\nMake use of C2 pointers : No\n\nRead offset correction                      : 667\nOverread into Lead-In and Lead-Out          : No\nFill up missing offset samples with silence : Yes\nDelete leading and trailing silent blocks   : No\nNull samples used in CRC calculations       : Yes\nUsed interface                              : Installed external ASPI interface\n\nUsed output format              : User Defined Encoder\nSelected bitrate                : 1024 kBit/s\nQuality                         : High\nAdd ID3 tag                     : No\nCommand line compressor         : C:ProgrammiExact Audio CopyFLACFLAC.EXE\nAdditional command line options :  -8 -V -T &quot;ARTIST=%a&quot; -T &quot;TITLE=%t&quot; -T &quot;ALBUM=%g&quot; -T &quot;DATE=%y&quot; -T &quot;TRACKNUMBER=%n&quot; -T &quot;GENRE=%m&quot; -T &quot;COMMENT=%e&quot; %s -o %d \n\n\nTOC of the extracted CD\n\n     Track |   Start  |  Length  | Start sector | End sector \n    ---------------------------------------------------------\n        1  |  0:00.00 |  3:47.00 |         0    |    17024   \n        2  |  3:47.00 |  4:53.27 |     17025    |    39026   \n        3  |  8:40.27 |  4:55.58 |     39027    |    61209   \n        4  | 13:36.10 |  4:49.67 |     61210    |    82951   \n        5  | 18:26.02 |  3:37.38 |     82952    |    99264   \n        6  | 22:03.40 |  4:44.47 |     99265    |   120611   \n        7  | 26:48.12 |  4:19.38 |    120612    |   140074   \n        8  | 31:07.50 |  4:50.35 |    140075    |   161859   \n        9  | 35:58.10 |  6:59.67 |    161860    |   193351   \n       10  | 42:58.02 |  4:33.60 |    193352    |   213886   \n       11  | 47:31.62 |  5:39.40 |    213887    |   239351   \n\n\nRange status and errors\n\nSelected range\n\n     Filename C:Documents and SettingsMaste75DocumentiDownloadsPantera - The Great Southern Trendkill (1996)[Eac Flac][Rock City]Pantera - The Great Southern Trendkill.wav\n\n     Peak level 100.0 %\n     Range quality 100.0 %\n     Test CRC A1943044\n     Copy CRC A1943044\n     Copy OK\n\nNo errors occurred\n\n \nAccurateRip summary\n \nTrack  1  accurately ripped (confidence 50)  [A4CE680F]\nTrack  2  accurately ripped (confidence 51)  [C14E4ED6]\nTrack  3  accurately ripped (confidence 48)  [CEED4644]\nTrack  4  accurately ripped (confidence 50)  [1F0F22BE]\nTrack  5  accurately ripped (confidence 50)  [87B02B5D]\nTrack  6  accurately ripped (confidence 50)  [F1FABA42]\nTrack  7  accurately ripped (confidence 51)  [DAEF014A]\nTrack  8  accurately ripped (confidence 50)  [5ECD8BAA]\nTrack  9  accurately ripped (confidence 49)  [01F8CA3A]\nTrack 10  accurately ripped (confidence 50)  [20C47D88]\nTrack 11  accurately ripped (confidence 45)  [0B179D03]\n \nAll tracks accurately ripped\n\nEnd of status report\n","torrent":{"xt":"urn:btih:fe511e6cbb63f717453ff7dbaa2b68a377ebadf3","amp;dn":"Pantera+-+The+Great+Southern+Trendkill+%281996%29%5BEac+Flac%5D%5BRock+Cit","amp;tr":["udp%3A%2F%2Ftracker.openbittorrent.com%3A80","udp%3A%2F%2Fopen.demonii.com%3A1337","udp%3A%2F%2Ftracker.coppersurfer.tk%3A6969","udp%3A%2F%2Fexodus.desync.com%3A6969"],"infoHash":"fe511e6cbb63f717453ff7dbaa2b68a377ebadf3","infoHashBuffer":{"type":"Buffer","data":[254,81,30,108,187,99,247,23,69,63,247,219,170,43,104,163,119,235,173,243]},"announce":[],"urlList":[]}}